Coordinates
version=1
nRows=6
nColumns=36
inDegrees=yes

Units are S.I. units (second, meters, Newtons, ...)
If the header above contains a line with 'inDegrees', this indicates whether rotational values are in degrees (yes) or radians (no).

endheader
time	pelvis_tilt	pelvis_list	pelvis_rotation	pelvis_tx	pelvis_ty	pelvis_tz	hip_flexion_r	hip_adduction_r	hip_rotation_r	knee_angle_r	knee_angle_r_beta	ankle_angle_r	subtalar_angle_r	mtp_angle_r	hip_flexion_l	hip_adduction_l	hip_rotation_l	knee_angle_l	knee_angle_l_beta	ankle_angle_l	subtalar_angle_l	mtp_angle_l	lumbar_extension	lumbar_bending	lumbar_rotation	arm_flex_r	arm_add_r	arm_rot_r	elbow_flex_r	pro_sup_r	arm_flex_l	arm_add_l	arm_rot_l	elbow_flex_l	pro_sup_l
      3.91666670	    -18.51445678	     -0.00488762	     -2.34250952	      0.25503788	      1.24341788	      0.04696449	     21.82351258	      0.97493487	      4.61573243	     37.78095493	      0.65940206	      4.77818917	    -20.27521466	     -7.49999987	     11.71910348	     -0.83329873	     -0.11231132	     17.41984157	      0.30403359	     12.52553754	    -14.72424636	     -7.49999987	     -1.90450321	      2.39186450	     -3.05465093	     59.01565741	    -20.81419504	     24.64373861	     82.68962743	     86.83632680	     86.41757805	    -17.89306421	     35.55606322	     66.88134910	     83.09305432
      3.93333330	    -17.31578723	      0.26206502	     -2.49453301	      0.27504327	      1.25413785	      0.04570431	     23.08458954	      0.50185535	      4.07570569	     43.24808291	      0.75482144	      2.76365555	    -20.65604476	     -7.49999987	     11.39125446	     -0.66753950	     -1.32920888	     20.82476190	      0.36346066	      8.14054890	    -14.66064061	     -7.49999987	     -1.88873927	      2.21863931	     -1.88949922	     57.26496749	    -24.27683141	     24.59479709	     85.06610071	     85.36936998	     85.55022770	    -17.19307427	     33.95519013	     65.57776796	     82.55531484
      3.95000000	    -16.41430880	      0.41816358	     -2.88571447	      0.29274570	      1.26200414	      0.04554145	     25.15271677	      0.38036885	      3.74439062	     48.73605869	      0.85060469	      1.61701939	    -21.74483573	     -7.49999987	     12.60818645	     -0.69595586	     -2.23029124	     26.00027212	      0.45379035	      3.95451790	    -15.23298330	     -7.49999987	     -1.92632967	      1.98681225	     -0.89651286	     54.45575492	    -27.31506457	     24.27171459	     87.24336672	     84.24705598	     84.13275515	    -16.59340401	     32.14887417	     63.79359496	     82.42415643
      3.96666670	    -15.83781878	      0.55532210	     -3.21046069	      0.31098642	      1.27364538	      0.04653921	     27.27639517	      0.34544387	      3.22178165	     52.69973968	      0.91978397	      1.06179397	    -23.68901705	     -7.49999987	     14.30042915	     -0.78999453	     -2.90265150	     31.37275072	      0.54755780	      0.82031606	    -15.42747507	     -7.49999987	     -1.74199812	      1.85045413	     -0.68970983	     50.30094688	    -29.10458069	     23.85695278	     88.49972043	     83.19072083	     80.67150998	    -17.63072958	     30.34376759	     63.40144836	     81.58350815
      3.98333330	    -15.35749504	      0.48158345	     -3.20690711	      0.32999326	      1.28519731	      0.04589262	     28.74734371	      0.38424586	      2.40329649	     53.95691503	      0.94172582	      1.64204935	    -24.66129537	     -7.49999987	     16.41303197	     -1.15842434	     -3.25689808	     36.29715276	      0.63350482	     -1.12811030	    -15.54093580	     -7.49999987	     -2.29060681	      1.40499879	      0.81208407	     42.52944569	    -32.09387561	     18.95389537	     92.00000444	     83.14356306	     77.10361366	    -16.56566510	     27.79496765	     62.46769005	     83.62074304
      4.00000000	    -15.27896746	      0.38065849	     -3.22072125	      0.34574724	      1.28771298	      0.04477975	     30.54332664	      0.39125317	      1.87896926	     53.26557592	      0.92965968	      2.40247299	    -25.10765374	     -7.49999987	     18.97475728	     -1.42217760	     -3.02752934	     39.90474834	      0.69646925	     -0.52628582	    -14.74700239	     -7.49999987	     -2.24528977	      1.34761342	      0.24729696	     36.94970560	    -33.19886853	     17.45822686	     92.60840532	     82.35178233	     72.72732567	    -19.09104996	     26.74874946	     63.33184395	     83.01006463
